<svg xmlns="http://www.w3.org/2000/svg" viewBox="0 0 240 240">
  <rect width="240" height="240" rx="32" fill="#F9F5EA"/>
  <path d="M60 100c0-30 36-48 60-48s60 18 60 48v44c0 22-18 40-40 40h-40c-22 0-40-18-40-40v-44Z" fill="#C48B5F"/>
  <circle cx="90" cy="102" r="12" fill="#FFF8E2"/>
  <circle cx="150" cy="102" r="12" fill="#FFF8E2"/>
  <circle cx="90" cy="106" r="6" fill="#3B3025"/>
  <circle cx="150" cy="106" r="6" fill="#3B3025"/>
  <path d="M100 140c10 10 30 10 40 0" stroke="#3B3025" stroke-width="8" fill="none" stroke-linecap="round"/>
  <path d="M58 95c-6-22 10-40 22-40s26 18 26 40" stroke="#3B3025" stroke-width="10" fill="none" stroke-linecap="round"/>
  <path d="M182 95c6-22-10-40-22-40s-26 18-26 40" stroke="#3B3025" stroke-width="10" fill="none" stroke-linecap="round"/>
  <path d="M80 142c-8 10-12 24-12 36h96c0-12-4-26-12-36" fill="#A36C45"/>
  <path d="M72 158c0 4 4 8 8 8h80c4 0 8-4 8-8s-4-8-8-8H80c-4 0-8 4-8 8Z" fill="#3B3025" opacity="0.25"/>
</svg>
